<svg xmlns="http://www.w3.org/2000/svg" version="1.1" xmlns:xlink="http://www.w3.org/1999/xlink" xmlns:svgjs="http://svgjs.dev/svgjs" width="308.7612359841165" height="304.915625" viewBox="0 0 1000 1000"><g transform="matrix(1,0,0,1,-0.14221556886212738,-0.14221556886229791)"><svg viewBox="0 0 334 334" data-background-color="#ffffff" preserveAspectRatio="xMidYMid meet" height="1000" width="1000" xmlns="http://www.w3.org/2000/svg" xmlns:xlink="http://www.w3.org/1999/xlink"><g id="tight-bounds" transform="matrix(1,0,0,1,0.04749999999998522,0.04750000000001364)"><svg viewBox="0 0 333.90454557049503 333.90454557049503" height="333.90454557049503" width="333.90454557049503"><g><svg></svg></g><g><svg viewBox="0 0 333.90454557049503 333.90454557049503" height="333.90454557049503" width="333.90454557049503"><g><path d="M0 166.952c0-92.205 74.747-166.952 166.952-166.952 92.205 0 166.952 74.747 166.953 166.952 0 92.205-74.747 166.952-166.953 166.953-92.205 0-166.952-74.747-166.952-166.953zM166.952 329.72c89.894 0 162.767-72.873 162.768-162.768 0-89.894-72.873-162.767-162.768-162.767-89.894 0-162.767 72.873-162.767 162.767 0 89.894 72.873 162.767 162.767 162.768z" data-fill-palette-color="tertiary" fill="#ff0000" stroke="transparent"></path><ellipse rx="160.27418187383762" ry="160.27418187383762" cx="166.95227278524752" cy="166.95227278524752" fill="#ff0000" stroke="transparent" stroke-width="0" fill-opacity="1" data-fill-palette-color="tertiary"></ellipse></g><g transform="matrix(1,0,0,1,84.40290840467246,71.17305217166896)"><svg viewBox="0 0 165.0987287611501 191.55844122715712" height="191.55844122715712" width="165.0987287611501"><g><svg viewBox="0 0 213.1584412271571 247.32049145549314" height="191.55844122715712" width="165.0987287611501"><g transform="matrix(1,0,0,1,0,144.3824003501756)"><svg viewBox="0 0 213.1584412271571 102.93809110531754" height="102.93809110531754" width="213.1584412271571"><g><svg viewBox="0 0 213.1584412271571 102.93809110531754" height="102.93809110531754" width="213.1584412271571"><g><svg viewBox="0 0 213.1584412271571 59.9159361957225" height="59.9159361957225" width="213.1584412271571"><g transform="matrix(1,0,0,1,0,0)"><svg width="213.1584412271571" viewBox="0.75 -42.95 152.79 42.95" height="59.9159361957225" data-palette-color="#ffffff"><path d="M9.1 0L0.75 0 4.9-42.95 19.45-42.95 23.55 0 15.4 0 14.8-6.95 9.6-6.95 9.1 0ZM11.85-35.65L10.25-13.8 14.15-13.8 12.25-35.65 11.85-35.65ZM43.5 0L25.05 0 25.05-7.8 34.85-35.05 26-35.05 26-42.95 43.95-42.95 43.95-35.45 33.9-7.9 43.5-7.9 43.5 0ZM54.4 0L46.65 0 46.65-42.95 59.75-42.95 63.35-16.75 66.95-42.95 80.15-42.95 80.15 0 72.3 0 72.3-30.95 67.34 0 59.65 0 54.4-30.95 54.4 0ZM91.14 0L82.79 0 86.94-42.95 101.49-42.95 105.59 0 97.44 0 96.84-6.95 91.64-6.95 91.14 0ZM93.89-35.65L92.29-13.8 96.19-13.8 94.29-35.65 93.89-35.65ZM115.39 0L107.04 0 111.19-42.95 125.74-42.95 129.84 0 121.69 0 121.09-6.95 115.89-6.95 115.39 0ZM118.14-35.65L116.54-13.8 120.44-13.8 118.54-35.65 118.14-35.65ZM140.84 0L132.44 0 132.44-42.95 141.29-42.95 145.24-22.4 145.24-42.95 153.54-42.95 153.54 0 145.14 0 140.84-21.5 140.84 0Z" opacity="1" transform="matrix(1,0,0,1,0,0)" fill="#ffffff" class="undefined-text-0" data-fill-palette-color="quaternary" id="text-0"></path></svg></g></svg></g><g transform="matrix(1,0,0,1,0,74.06065074906388)"><svg viewBox="0 0 213.1584412271571 28.87744035625366" height="28.87744035625366" width="213.1584412271571"><g transform="matrix(1,0,0,1,0,0)"><svg width="213.1584412271571" viewBox="4.3 -35.2 263.15 35.650000000000006" height="28.87744035625366" data-palette-color="#ffffff"><path d="M15.55-4.15L23.3-4.4 23.6-3.95 23.25 0 4.3 0 4.65-9.65 4.3-32.1 23.35-32.1 23.65-31.65 23.25-27.7 15.65-27.9 9.55-27.85 9.4-18.5 15.2-18.4 20.5-18.55 20.85-18.15 20.45-14.2 14.8-14.35 9.35-14.25 9.3-10.1 9.45-4.2 15.55-4.15ZM45.55-35.1L45.2-10.15 45.35-5.35Q45.4-4.4 45.65-4.05 45.9-3.7 46.65-3.7L46.65-3.7Q47.2-3.7 48.2-3.9L48.2-3.9 48.65-3.55 48.15-0.75Q46.7 0.15 45 0.35L45 0.35Q43.45 0.2 42.48-0.73 41.5-1.65 41.25-3.15L41.25-3.15 40.85-3.15Q39.4-1.9 38.25-1.13 37.1-0.35 35.7 0.3L35.7 0.3Q30.7 0.3 28.03-2.78 25.35-5.85 25.35-11.45L25.35-11.45Q25.35-17.2 28.35-20.33 31.35-23.45 36.7-23.45L36.7-23.45Q38.45-23.45 40.6-23.05L40.6-23.05 40.5-34.7 45.55-35.1ZM36.2-19.95Q33.35-19.95 31.73-18 30.1-16.05 30.1-12.2L30.1-12.2Q30.1-8.15 31.6-6 33.1-3.85 35.8-3.85L35.8-3.85Q37.05-3.85 38.2-4.45 39.35-5.05 40.65-6.5L40.65-6.5 40.75-9.7 40.6-18.8Q38.2-19.95 36.2-19.95L36.2-19.95ZM53.25 0L53.45-9.65 53.3-22.7 58.3-23.15 58.1-10.1 58.25 0 53.25 0ZM55.85-33.8Q57.1-33.8 57.8-33.08 58.5-32.35 58.5-31.05L58.5-31.05Q58.5-29.7 57.75-28.9 57-28.1 55.7-28.1L55.7-28.1Q54.4-28.1 53.68-28.85 52.95-29.6 52.95-30.9L52.95-30.9Q52.95-32.2 53.73-33 54.5-33.8 55.85-33.8L55.85-33.8ZM73.75-3.85Q75.4-3.85 77.25-4.75L77.25-4.75 77.75-4.4 77.25-1.2Q74.5 0.1 72.15 0.3L72.15 0.3Q69.05-0.2 67.65-1.78 66.25-3.35 66.25-6.35L66.25-6.35 66.45-9.95 66.4-19.7 63.25-19.7 63.05-20 63.3-22.95 66.35-22.95 66.35-26.6 70.85-28.3 71.3-27.9 71.2-22.95 77.6-22.95 77.8-22.6 77.55-19.7 71.1-19.7 70.85-7.15Q70.8-5.3 71.48-4.58 72.15-3.85 73.75-3.85L73.75-3.85ZM90.45-23.5Q95.3-23.5 97.93-20.48 100.55-17.45 100.55-11.9L100.55-11.9Q100.55-5.95 97.75-2.75 94.95 0.45 89.8 0.45L89.8 0.45Q84.95 0.45 82.33-2.58 79.7-5.6 79.7-11.15L79.7-11.15Q79.7-17.1 82.5-20.3 85.3-23.5 90.45-23.5L90.45-23.5ZM90.15-19.95Q84.45-19.95 84.45-12.25L84.45-12.25Q84.45-7.55 85.85-5.3 87.25-3.05 90.15-3.05L90.15-3.05Q93-3.05 94.4-4.95 95.8-6.85 95.8-10.75L95.8-10.75Q95.8-15.45 94.4-17.7 93-19.95 90.15-19.95L90.15-19.95ZM117.15-23.1Q117.7-23.1 118.4-23L118.4-23 118.4-18.15 117.85-18Q117.05-18.25 116-18.25L116-18.25Q114.45-18.25 113.1-17.1 111.75-15.95 110.5-13.4L110.5-13.4 110.45-10.1 110.75 0 105.65 0 106-9.65 105.7-22.7 110.55-23.15 110.5-18.55 110.85-18.55Q112.2-20.95 113.85-22.03 115.5-23.1 117.15-23.1L117.15-23.1ZM141-35.2Q142.95-35.2 145.05-34.75L145.05-34.75 144.75-30.9 144.4-30.6Q142.25-31.55 140.55-31.55L140.55-31.55Q138.75-31.55 137.8-30.48 136.85-29.4 136.8-27.25L136.8-27.25 136.75-22.95 142.65-22.95 142.8-22.6 142.5-19.7 136.7-19.7 136.55-10.15 136.9 0 131.8 0 132.1-9.7 132-19.7 128.55-19.7 128.35-20 128.6-22.95 132-22.95 131.95-26.4Q131.9-30.65 134.28-32.93 136.65-35.2 141-35.2L141-35.2ZM154.35-23.5Q159.2-23.5 161.83-20.48 164.45-17.45 164.45-11.9L164.45-11.9Q164.45-5.95 161.65-2.75 158.85 0.45 153.7 0.45L153.7 0.45Q148.85 0.45 146.23-2.58 143.6-5.6 143.6-11.15L143.6-11.15Q143.6-17.1 146.4-20.3 149.2-23.5 154.35-23.5L154.35-23.5ZM154.05-19.95Q148.35-19.95 148.35-12.25L148.35-12.25Q148.35-7.55 149.75-5.3 151.15-3.05 154.05-3.05L154.05-3.05Q156.9-3.05 158.3-4.95 159.7-6.85 159.7-10.75L159.7-10.75Q159.7-15.45 158.3-17.7 156.9-19.95 154.05-19.95L154.05-19.95ZM181.05-23.1Q181.6-23.1 182.3-23L182.3-23 182.3-18.15 181.75-18Q180.95-18.25 179.9-18.25L179.9-18.25Q178.35-18.25 177-17.1 175.65-15.95 174.4-13.4L174.4-13.4 174.35-10.1 174.65 0 169.55 0 169.9-9.65 169.6-22.7 174.45-23.15 174.4-18.55 174.75-18.55Q176.1-20.95 177.75-22.03 179.4-23.1 181.05-23.1L181.05-23.1ZM208.55 0L208.85-15.15Q208.9-17.05 207.98-18.13 207.05-19.2 205.3-19.2L205.3-19.2Q202.45-19.2 199.3-16.2L199.3-16.2 199.2-10.15 199.55 0 194.45 0 194.8-9.7 194.5-34.7 199.6-35.1 199.35-19.8 199.65-19.8Q202.6-22.4 205.8-23.35L205.8-23.35Q209.65-23.35 211.63-21.6 213.6-19.85 213.55-16.6L213.55-16.6 213.45-10.1 213.65 0 208.55 0ZM220.6 0L220.8-9.65 220.65-22.7 225.65-23.15 225.45-10.1 225.6 0 220.6 0ZM223.2-33.8Q224.45-33.8 225.15-33.08 225.85-32.35 225.85-31.05L225.85-31.05Q225.85-29.7 225.1-28.9 224.35-28.1 223.05-28.1L223.05-28.1Q221.75-28.1 221.03-28.85 220.3-29.6 220.3-30.9L220.3-30.9Q220.3-32.2 221.08-33 221.85-33.8 223.2-33.8L223.2-33.8ZM244.5-23.1Q245.05-23.1 245.75-23L245.75-23 245.75-18.15 245.2-18Q244.4-18.25 243.35-18.25L243.35-18.25Q241.8-18.25 240.45-17.1 239.1-15.95 237.85-13.4L237.85-13.4 237.8-10.1 238.1 0 233 0 233.35-9.65 233.05-22.7 237.9-23.15 237.85-18.55 238.2-18.55Q239.55-20.95 241.2-22.03 242.85-23.1 244.5-23.1L244.5-23.1ZM267.2-11.9L266.65-11.3 252.6-11.25Q252.65-7.45 254.45-5.48 256.25-3.5 259.55-3.5L259.55-3.5Q263-3.5 266.3-5.55L266.3-5.55 266.8-5.25 266.05-1.15Q262.4 0.45 258.95 0.45L258.95 0.45Q253.8 0.45 250.88-2.73 247.95-5.9 247.95-11.4L247.95-11.4Q247.95-16.95 250.85-20.2 253.75-23.45 258.7-23.45L258.7-23.45Q262.9-23.45 265.18-21.15 267.45-18.85 267.45-14.65L267.45-14.65Q267.45-13.5 267.2-11.9L267.2-11.9ZM262.75-14.55L262.85-15.25Q262.85-17.6 261.78-18.8 260.7-20 258.65-20L258.65-20Q256.35-20 254.85-18.53 253.35-17.05 252.85-14.35L252.85-14.35 262.75-14.55Z" opacity="1" transform="matrix(1,0,0,1,0,0)" fill="#ffffff" class="undefined-text-1" data-fill-palette-color="quaternary" id="text-1"></path></svg></g></svg></g></svg></g></svg></g><g transform="matrix(1,0,0,1,48.53273499183214,0)"><svg viewBox="0 0 116.09297124349283 116.09297124349283" height="116.09297124349283" width="116.09297124349283"><g><svg></svg></g><g id="icon-0"><svg viewBox="0 0 116.09297124349283 116.09297124349283" height="116.09297124349283" width="116.09297124349283"><g><path d="M0 58.046c0-32.058 25.988-58.046 58.046-58.046 32.058 0 58.046 25.988 58.047 58.046 0 32.058-25.988 58.046-58.047 58.047-32.058 0-58.046-25.988-58.046-58.047zM58.046 110.69c29.074 0 52.643-23.569 52.644-52.644 0-29.074-23.569-52.643-52.644-52.643-29.074 0-52.643 23.569-52.643 52.643 0 29.074 23.569 52.643 52.643 52.644z" data-fill-palette-color="quaternary" fill="#ffffff" stroke="transparent"></path></g><g transform="matrix(1,0,0,1,30.35009691581591,30.349762820637835)"><svg viewBox="0 0 55.392777411861005 55.393445602217156" height="55.393445602217156" width="55.392777411861005"><g><svg xmlns="http://www.w3.org/2000/svg" xmlns:xlink="http://www.w3.org/1999/xlink" version="1.1" x="0" y="0" viewBox="5.412824897783869 5.195582772773262 79.76931438294501 79.77027662186998" enable-background="new 0 0 90 90" xml:space="preserve" height="55.393445602217156" width="55.392777411861005" class="icon-gn-0" data-fill-palette-color="quaternary" id="gn-0"><path d="M54.624 83.27c-10.792 1.801-22.246-1.411-30.727-8.272-8.062-6.522-13.088-16.744-12.728-27.17 0.349-10.096 5.499-20.182 14.078-25.707 8.769-5.647 20.783-5.62 29.498 0.129 8.154 5.379 12.661 15.857 9.907 25.391-1.424 4.931-4.572 9.475-9.052 12.082-4.663 2.714-10.561 3.268-15.615 1.341-4.544-1.733-8.418-5.448-9.851-10.154-1.47-4.826-0.243-10.416 3.327-14.027 3.452-3.492 8.998-4.743 13.484-2.567 4.259 2.065 6.884 7.148 5.307 11.755-0.85 2.483-2.859 4.611-5.423 5.317-2.69 0.741-5.774-0.221-7.439-2.493-1.629-2.222-1.495-5.503 0.597-7.389 1.054-0.95 2.599-1.429 3.984-1.015 0.41 0.122 2.233 0.566 2.058 1.209 0.087-0.652-1.341-0.82-1.755-0.934-1.29-0.356-2.733 0.004-3.719 0.904-1.739 1.586-1.995 4.459-0.597 6.34 1.417 1.906 4.102 2.721 6.348 1.971 2.287-0.765 3.875-3.013 4.245-5.344 0.746-4.703-3.812-8.759-8.323-8.569-4.774 0.201-8.548 4.373-9.111 8.971-1.056 8.621 8.8 14.488 16.466 12.536 8.546-2.177 12.86-12.372 10.766-20.465-2.34-9.045-11.891-14.664-20.877-14.543-9.785 0.131-18.28 7.23-21.955 16.011-4.038 9.649-2.194 21.17 4.201 29.364 6.485 8.309 16.93 13.113 27.352 13.664 5.766 0.305 11.749-0.537 17.004-3.006 4.955-2.328 8.907-6.258 11.976-10.734 6.303-9.194 8.662-20.938 6.135-31.824C79.845 17.355 61.052 3.689 41.936 5.329 23.164 6.939 7.154 22.991 5.551 41.756c-0.918 10.74 2.777 21.76 9.928 29.817 7.078 7.976 17.424 12.875 28.071 13.353 6.118 0.275 12.303-0.876 17.903-3.359-2.472 0.844-4.993 1.695-7.622 1.838 0.506-0.028 0.982-0.246 1.492-0.242-1.79-0.014-3.465 0.776-5.242 0.87 1.034-0.055 2.103-0.271 3.095-0.566 0.337-0.101 1.458-0.578 1.755-0.242-0.207-0.235-1.358 0.182-1.613 0.243-0.926 0.221-1.953 0.452-2.902 0.51 0.426-0.026 4.536-0.711 4.53-0.755 0.008 0.065-4.022 0.607-4.613 0.769 0.714-0.196 1.505-0.245 2.235-0.367 0.292-0.048 2.164-0.591 2.374-0.402C54.91 83.194 54.661 83.264 54.624 83.27 43.928 85.055 57.114 82.88 54.624 83.27z" fill="#ffffff" data-fill-palette-color="quaternary"></path></svg></g></svg></g></svg></g></svg></g><g></g></svg></g></svg></g></svg></g><defs></defs></svg><rect width="333.90454557049503" height="333.90454557049503" fill="none" stroke="none" visibility="hidden"></rect></g></svg></g></svg>